<?xml version="1.0" standalone="no"?>
<!DOCTYPE svg PUBLIC "-//W3C//DTD SVG 20010904//EN"
 "http://www.w3.org/TR/2001/REC-SVG-20010904/DTD/svg10.dtd">
<svg version="1.0" xmlns="http://www.w3.org/2000/svg"
 width="1043.000000pt" height="1043.000000pt" viewBox="0 0 1043.000000 1043.000000"
 preserveAspectRatio="xMidYMid meet">
<metadata>
Created by potrace 1.11, written by Peter Selinger 2001-2013
</metadata>
<g transform="translate(0.000000,1043.000000) scale(0.100000,-0.100000)"
fill="#000000" stroke="none">
<path d="M4205 8511 c-15 -9 -37 -25 -49 -36 -12 -11 -37 -31 -55 -45 -19 -14
-53 -42 -75 -62 -23 -21 -44 -38 -48 -38 -4 0 -17 -10 -30 -22 -13 -13 -39
-35 -58 -49 -19 -15 -45 -35 -56 -45 -12 -11 -36 -30 -55 -44 -18 -14 -41 -33
-51 -42 -10 -10 -18 -15 -18 -11 0 3 -8 -4 -19 -15 -10 -12 -21 -22 -25 -22
-4 0 -16 -8 -26 -18 -14 -13 -33 -18 -62 -16 -24 1 -52 -3 -64 -11 -16 -10
-582 -448 -644 -498 -8 -7 -62 -48 -118 -92 -124 -95 -445 -346 -452 -352 -2
-2 -5 -795 -6 -1761 -1 -966 -2 -1760 -3 -1763 -1 -8 -78 -31 -112 -34 -14 -1
-34 -7 -45 -12 -10 -6 -24 -8 -31 -6 -6 2 -14 -1 -18 -6 -3 -6 -17 -11 -30
-11 -13 0 -36 -5 -52 -12 -15 -6 -37 -12 -48 -13 -11 -2 -33 -8 -48 -14 -15
-6 -31 -10 -35 -9 -4 1 -17 -3 -28 -10 -12 -6 -24 -9 -26 -7 -3 3 -21 -2 -41
-10 -21 -8 -37 -13 -37 -11 0 3 -16 -2 -35 -10 -19 -8 -35 -12 -35 -10 0 3
-16 -2 -36 -10 -20 -8 -38 -13 -41 -10 -3 3 -18 -1 -33 -9 -15 -8 -30 -12 -33
-9 -3 3 -17 -2 -31 -11 -14 -10 -26 -15 -26 -11 0 3 -11 1 -26 -4 -14 -6 -39
-12 -57 -15 -17 -4 -36 -10 -43 -15 -6 -6 -13 -7 -16 -4 -4 3 -20 -2 -37 -10
-17 -9 -34 -15 -38 -15 -4 1 -15 0 -23 -4 -26 -10 -85 -27 -93 -27 -4 0 -21
-7 -37 -15 -17 -9 -30 -13 -30 -10 0 3 -16 -1 -36 -10 -19 -8 -38 -14 -42 -13
-4 1 -16 -2 -27 -8 -11 -6 -27 -10 -35 -9 -8 0 -18 -3 -21 -8 -3 -4 -18 -10
-34 -13 -15 -3 -36 -9 -47 -15 -10 -5 -18 -7 -18 -4 0 3 -14 -2 -31 -10 -17
-9 -33 -14 -36 -11 -3 3 -15 0 -27 -6 -11 -7 -30 -13 -41 -15 -11 -2 -21 -8
-23 -13 -2 -6 -12 -10 -22 -10 -11 0 -29 -4 -42 -9 -13 -5 -77 -26 -143 -47
-71 -23 -111 -40 -97 -42 17 -3 22 -10 22 -33 0 -28 -1 -29 -50 -29 l-50 0 0
-86 c0 -98 -9 -114 -64 -114 -20 0 -36 -4 -36 -10 0 -5 -22 -10 -50 -10 -27 0
-50 -4 -50 -10 0 -5 9 -10 20 -10 13 0 20 -7 20 -20 0 -13 -7 -20 -20 -20 -11
0 -20 -5 -20 -11 0 -7 7 -8 18 -3 16 7 148 19 342 29 46 3 98 9 115 14 16 5
55 9 86 9 31 0 62 3 69 7 7 4 38 9 69 11 31 2 67 6 81 10 14 3 51 8 83 10 32
2 62 6 68 10 6 3 42 8 80 9 37 2 74 7 80 10 6 4 38 9 70 11 32 1 64 6 70 10
18 11 149 15 149 4 0 -13 -21 -24 -50 -27 -45 -5 -50 -6 -50 -16 0 -5 -6 -7
-12 -4 -7 2 -24 -1 -38 -8 -14 -7 -33 -11 -43 -10 -9 2 -15 -1 -11 -6 6 -10 3
-11 -37 -13 -15 -1 -34 -8 -43 -15 -9 -7 -16 -11 -16 -7 0 3 -16 0 -35 -8 -19
-8 -35 -13 -35 -11 0 5 -69 -19 -107 -37 -11 -6 -25 -8 -31 -4 -5 3 -18 -1
-28 -9 -10 -8 -29 -15 -41 -15 -12 0 -25 -4 -28 -10 -3 -5 -19 -10 -35 -10
-16 0 -32 -5 -36 -11 -3 -6 -15 -9 -25 -6 -11 3 -19 2 -19 -3 0 -4 -24 -15
-53 -24 -28 -9 -59 -20 -67 -23 -8 -3 -26 -8 -40 -10 -13 -2 -30 -9 -37 -15
-7 -5 -17 -7 -23 -3 -5 3 -13 -1 -16 -10 -4 -9 -16 -15 -28 -14 -11 1 -32 -2
-46 -8 -14 -6 -45 -17 -70 -24 -53 -15 -73 -29 -42 -29 19 0 22 -6 22 -36 0
-38 -18 -64 -44 -64 -9 0 -16 -8 -16 -20 0 -13 7 -20 20 -20 16 0 20 -7 20
-30 0 -23 -4 -30 -20 -30 -11 0 -20 -4 -20 -10 0 -5 -9 -10 -20 -10 -11 0 -20
-4 -20 -10 0 -5 -22 -10 -50 -10 -27 0 -50 -4 -50 -9 0 -5 -9 -13 -20 -16 -11
-3 -20 -13 -20 -21 0 -10 -13 -14 -45 -14 -25 0 -45 -5 -45 -10 0 -23 440 -1
713 35 71 9 134 14 142 12 7 -3 16 -2 21 3 5 4 36 11 69 14 33 4 85 12 117 18
31 5 62 8 70 6 7 -3 29 0 48 7 19 6 59 13 89 14 30 1 59 5 63 7 5 3 38 8 74
10 36 2 70 6 74 9 5 3 28 8 52 11 24 2 54 7 68 10 14 4 50 8 80 10 30 2 68 8
85 13 16 5 46 9 65 10 19 1 49 6 65 11 17 5 41 8 55 6 14 -1 39 2 55 6 17 5
57 11 90 14 33 3 64 8 69 11 5 4 37 7 71 9 l62 2 -1 -194 c-1 -121 3 -195 9
-197 6 -2 174 -3 375 -2 l365 1 350 268 c193 148 370 285 394 304 24 20 57 37
72 38 15 1 32 5 38 8 6 4 40 9 76 11 36 2 74 7 86 10 11 4 43 8 70 10 28 2 67
6 88 10 l37 6 76 -98 c42 -54 112 -143 155 -198 116 -148 215 -274 255 -326
l35 -46 64 42 c239 159 1196 792 1204 797 19 11 243 39 256 32 3 -2 5 -197 4
-433 -1 -301 2 -431 9 -434 6 -2 164 -3 352 -3 l340 1 604 470 c332 259 608
473 613 477 6 3 10 19 11 34 1 27 5 29 51 36 73 12 563 15 760 6 94 -5 224
-10 290 -12 66 -2 137 -4 158 -5 21 0 36 -4 34 -8 -3 -5 36 -7 86 -7 51 1 110
-2 132 -7 22 -4 81 -10 130 -13 50 -3 106 -9 125 -14 19 -4 46 -7 60 -6 14 1
55 -4 92 -11 37 -7 69 -11 72 -8 2 2 24 -1 47 -7 24 -7 70 -13 102 -14 l57 -2
0 127 0 127 -30 6 c-17 3 -33 6 -38 7 -48 13 -83 20 -112 24 -19 3 -51 8 -70
12 -19 3 -48 7 -63 9 -16 1 -36 6 -45 10 -10 4 -38 8 -64 10 -26 1 -55 7 -65
12 -10 5 -29 9 -43 8 -14 -1 -38 2 -55 7 -16 4 -48 10 -70 13 -22 2 -61 9 -87
15 -26 6 -51 9 -55 6 -4 -3 -19 0 -33 6 -14 6 -45 12 -70 13 -25 1 -45 3 -45
4 0 4 -42 12 -80 15 -22 2 -40 4 -40 5 0 3 -42 11 -85 16 -25 3 -56 8 -70 11
-14 3 -39 7 -55 9 -17 1 -46 5 -65 9 -19 4 -62 11 -95 15 -33 5 -91 14 -130
20 -38 6 -88 13 -110 16 -22 2 -56 7 -75 10 -64 10 -174 25 -220 30 -25 3 -54
7 -65 10 -11 2 -49 7 -85 11 -36 3 -67 7 -68 9 -2 1 -5 23 -5 48 -2 39 1 45
18 45 11 0 227 0 480 0 415 0 540 -2 540 -9 0 -1 59 -4 130 -6 72 -2 148 -6
170 -9 22 -4 80 -8 129 -10 49 -2 100 -7 115 -10 14 -4 56 -9 93 -10 36 -2 81
-7 100 -11 18 -4 56 -9 83 -10 28 -1 50 -3 50 -4 0 -3 61 -11 110 -15 28 -1
50 -4 50 -5 0 -3 39 -10 83 -14 l43 -5 -3 136 -3 136 -51 2 c-28 1 -56 5 -62
9 -6 3 -32 9 -58 12 -27 3 -52 8 -56 10 -4 3 -33 7 -65 10 -31 2 -60 8 -63 12
-3 4 -25 7 -49 8 -23 1 -46 5 -50 10 -3 5 -24 10 -46 11 -22 1 -51 4 -65 7
-14 4 -47 9 -75 12 -27 3 -57 7 -65 10 -8 4 -33 8 -55 10 -22 2 -47 7 -55 10
-8 4 -36 8 -62 9 -26 2 -52 7 -59 11 -7 4 -34 8 -60 10 -27 1 -53 5 -59 9 -5
3 -31 8 -58 10 -26 2 -58 7 -72 10 -14 4 -46 8 -72 10 -26 2 -57 7 -70 11 -13
4 -39 8 -58 10 -19 1 -48 5 -65 9 -16 3 -50 8 -75 11 -25 2 -52 7 -60 10 -8 3
-40 8 -70 10 -30 2 -62 7 -70 10 -8 3 -42 8 -75 10 -33 2 -67 7 -75 10 -8 3
-40 8 -70 10 -30 3 -66 9 -80 13 -14 4 -52 9 -85 10 -33 1 -64 7 -70 12 -7 7
-10 694 -10 2022 l0 2012 -349 1 -349 0 -66 -51 c-36 -28 -71 -54 -77 -58 -6
-3 2 40 18 96 38 134 108 431 108 460 l0 22 -262 3 c-145 2 -316 5 -382 6 -88
1 -120 -2 -123 -11 -3 -7 -9 -13 -15 -13 -8 0 -83 -54 -98 -70 -3 -3 -21 -17
-40 -30 -19 -13 -40 -29 -46 -35 -6 -5 -26 -21 -44 -35 -18 -14 -38 -30 -44
-35 -6 -6 -27 -22 -46 -35 -19 -13 -42 -32 -51 -42 -9 -10 -20 -18 -25 -18 -5
0 -16 -9 -24 -20 -8 -11 -18 -20 -23 -20 -4 0 -18 -10 -31 -22 -32 -32 -65
-58 -72 -58 -3 0 -15 -10 -28 -22 -33 -32 -65 -58 -72 -58 -3 0 -23 -18 -45
-40 -22 -22 -43 -40 -47 -40 -4 0 -14 -9 -22 -20 -8 -11 -18 -20 -23 -20 -4 0
-18 -10 -31 -22 -42 -41 -71 -63 -79 -60 -5 1 -6 -1 -3 -6 2 -4 -7 -17 -21
-28 -14 -10 -38 -30 -53 -44 -15 -14 -45 -38 -66 -55 -21 -16 -46 -37 -54 -46
-9 -8 -25 -19 -35 -22 -10 -4 -15 -10 -11 -14 3 -3 -3 -12 -13 -20 -11 -7 -17
-20 -14 -31 2 -10 0 -30 -6 -45 l-11 -27 -65 35 c-97 51 -150 90 -221 163
-120 121 -220 297 -289 505 -33 101 -75 293 -75 342 l0 24 -338 0 c-295 -1
-342 -3 -367 -18z m1729 -2443 c-3 -13 -11 -25 -15 -26 -5 -2 -7 -8 -3 -13 3
-5 0 -9 -6 -9 -6 0 -9 -4 -5 -9 3 -5 -1 -16 -9 -24 -8 -8 -12 -17 -9 -21 4 -3
1 -6 -5 -6 -6 0 -13 -13 -17 -30 -4 -16 -11 -30 -16 -30 -6 0 -8 -4 -5 -9 7
-11 -19 -22 -36 -16 -7 2 -32 6 -56 9 -68 9 -79 19 -45 41 39 26 167 128 171
138 2 4 10 7 18 7 8 0 14 5 14 10 0 6 7 10 16 10 11 0 14 -6 8 -22z"/>
<path d="M285 2960 c3 -5 10 -10 16 -10 5 0 9 5 9 10 0 6 -7 10 -16 10 -8 0
-12 -4 -9 -10z"/>
</g>
</svg>
